<svg width="320" height="136" viewBox="0 0 320 136" fill="none" xmlns="http://www.w3.org/2000/svg">
<g clip-path="url(#clip0_1_4883)">
<path d="M11.5346 42.4893C14.4316 42.4893 16.981 40.8667 16.981 37.6216C16.981 34.6707 14.601 32.7004 11.5346 32.7004C8.4682 32.7004 6.08819 34.6707 6.08819 37.6216C6.08819 40.8667 8.63757 42.4893 11.5346 42.4893Z" fill="white"/>
<path d="M25.0302 42.4893C27.9272 42.4893 30.4766 40.8667 30.4766 37.6216C30.4766 34.6707 28.159 32.7004 25.0302 32.7004C21.9014 32.7004 19.6462 34.6707 19.6462 37.6216C19.6462 40.8667 22.1956 42.4893 25.0302 42.4893Z" fill="white"/>
<path d="M48.554 64.5632C48.554 62.4771 49.7128 60.4444 50.934 59.4013C52.4405 58.1265 54.2946 57.4846 56.4339 57.4846C59.215 57.4846 61.9962 58.7059 64.2603 60.0967L67.7367 50.2455C63.7344 48.3911 59.9727 47.0538 55.2751 47.0538C50.8716 47.0538 46.8158 48.2128 43.9723 50.4148C40.4424 53.2499 38.1782 57.654 38.1782 63.1635C38.1782 66.4086 39.0429 69.3061 40.1482 71.624H30.5925V45.7166H20.1632V48.5516C8.39689 48.5516 0 54.5782 0 65.3567C0 76.1351 7.247 82.0458 20.2256 82.0458H68.5479V71.6151H50.6399C49.1958 69.6448 48.554 67.7905 48.554 64.5454V64.5632ZM20.1632 71.6329H17.498C13.6204 71.6329 10.4293 69.6003 10.4293 65.3745C10.4293 61.434 13.8433 59.0001 17.498 59.0001H20.1632V71.6329Z" fill="#FFCC00"/>
<path d="M139.921 47.0093C142.934 47.0093 145.662 45.3332 145.662 41.8474C145.662 38.7806 143.229 36.7479 139.921 36.7479C136.614 36.7479 134.19 38.7806 134.19 41.8474C134.19 45.3243 136.909 47.0093 139.921 47.0093Z" fill="#FFCC00"/>
<path d="M178.162 84.2657C174.917 84.2657 172.422 86.2984 172.422 89.3652C172.422 92.8421 175.149 94.5806 178.162 94.5806C181.175 94.5806 183.903 92.8421 183.903 89.3652C183.903 86.2895 181.469 84.2657 178.162 84.2657Z" fill="#FFCC00"/>
<path d="M183.145 48.6319H172.716V71.6419H161.591V68.165C161.591 63.4132 160.486 58.599 157.883 55.6481C154.87 52.2871 150.582 51.1281 144.61 51.1281H128.503V47.0717H118.073V71.6419H88.6398V35.0719H78.2105V82.0726H183.136V48.6319H183.145ZM151.162 71.6419H128.503V61.5588H145.252C147.338 61.5588 148.844 62.0759 149.887 63.2349C150.877 64.3404 151.162 65.7222 151.162 67.3537V71.6419Z" fill="white"/>
<path fill-rule="evenodd" clip-rule="evenodd" d="M259.145 16.35L219.505 39.2441L259.974 62.6107L299.614 39.7166L259.145 16.35Z" fill="#FFCC00"/>
<path fill-rule="evenodd" clip-rule="evenodd" d="M305.363 51.5024V102.854C305.363 104.155 304.722 105.27 303.59 105.921L259.332 131.48V78.0874L305.363 51.5114V51.5024Z" fill="#FFCC00"/>
<path fill-rule="evenodd" clip-rule="evenodd" d="M253.636 2.32646C257.585 0.0441759 262.363 0.0441759 266.312 2.32646L313.671 29.6693C315.65 30.8104 317.228 32.4151 318.324 34.3051C319.412 36.1951 320.009 38.3704 320.009 40.6527V95.3472C320.009 99.9118 317.62 104.04 313.671 106.322L266.312 133.673C262.363 135.956 257.585 135.956 253.636 133.673L206.277 106.322C202.328 104.04 199.939 99.9118 199.939 95.3472V40.6527C199.939 36.0882 202.328 31.9604 206.277 29.6782L253.636 2.32646ZM278.889 51.6897L259.974 62.6108L213.737 35.9099L232.653 24.9888L278.889 51.6897ZM310.872 43.9959V95.3472C310.872 96.6488 310.23 97.7632 309.098 98.414L263.495 124.749V71.3476L282.481 60.382L282.419 78.0429L288.151 67.9955L293.882 71.4279L293.945 53.7669L310.872 43.987V43.9959ZM261.739 10.2431L306.201 35.9188L290.335 45.0836L244.098 18.3827L258.191 10.2431C259.314 9.59231 260.607 9.59231 261.73 10.2431H261.739Z" fill="white"/>
<path d="M216.224 85.5673C214.513 81.8853 213.729 77.2583 213.729 72.3015V62.6107L220.2 65.3655V74.1202C220.2 77.0176 220.753 79.2464 221.778 81.1453C222.963 83.2939 224.746 84.8986 226.93 85.9239L236.637 90.4706V67.8528L243.884 70.8572V104.289L225.949 95.4453C221.341 93.1719 218.31 89.9892 216.224 85.5494V85.5673ZM226.217 102.586C226.217 99.6443 227.839 98.5032 229.979 99.573C232.118 100.643 233.812 103.46 233.812 106.464C233.812 109.861 231.984 110.601 229.979 109.558C227.973 108.515 226.217 105.929 226.217 102.595V102.586Z" fill="#FFCC00"/>
</g>
<defs>
<clipPath id="clip0_1_4883">
<rect width="320" height="134.77" fill="white" transform="translate(0 0.614746)"/>
</clipPath>
</defs>
</svg>
