<svg width="20" height="21" viewBox="0 0 20 21" fill="none" xmlns="http://www.w3.org/2000/svg">
<path d="M9.99991 11.5833C9.89158 11.5833 9.78324 11.5583 9.68324 11.5L2.32492 7.24169C2.02492 7.06669 1.9249 6.68333 2.0999 6.38333C2.2749 6.08333 2.6499 5.98331 2.95823 6.15831L9.99991 10.2333L16.9999 6.18334C17.2999 6.00834 17.6832 6.11669 17.8582 6.40835C18.0332 6.70835 17.9249 7.09166 17.6332 7.26666L10.3249 11.5C10.2166 11.55 10.1082 11.5833 9.99991 11.5833Z" fill="#484C52"/>
<path d="M10 19.1334C9.65833 19.1334 9.375 18.85 9.375 18.5084V10.95C9.375 10.6083 9.65833 10.325 10 10.325C10.3417 10.325 10.625 10.6083 10.625 10.95V18.5084C10.625 18.85 10.3417 19.1334 10 19.1334Z" fill="#484C52"/>
<path d="M10.0001 19.4583C9.26681 19.4583 8.54181 19.3 7.96681 18.9833L3.51681 16.5084C2.30848 15.8417 1.36682 14.2334 1.36682 12.85V8.14167C1.36682 6.75833 2.30848 5.15837 3.51681 4.48337L7.96681 2.01669C9.10847 1.38335 10.8918 1.38335 12.0335 2.01669L16.4835 4.49166C17.6918 5.15833 18.6335 6.76667 18.6335 8.15001V12.8584C18.6335 14.2417 17.6918 15.8417 16.4835 16.5167L12.0335 18.9833C11.4585 19.3 10.7335 19.4583 10.0001 19.4583ZM10.0001 2.79168C9.47514 2.79168 8.95848 2.90002 8.57515 3.10835L4.12515 5.58333C3.32515 6.03333 2.61682 7.22501 2.61682 8.15001V12.8584C2.61682 13.775 3.32515 14.975 4.12515 15.425L8.57515 17.9C9.33348 18.325 10.6668 18.325 11.4251 17.9L15.8751 15.425C16.6751 14.975 17.3835 13.7834 17.3835 12.8584V8.15001C17.3835 7.23334 16.6751 6.03333 15.8751 5.58333L11.4251 3.10835C11.0418 2.90002 10.5251 2.79168 10.0001 2.79168Z" fill="#484C52"/>
<path d="M14.1669 12.1584C13.8252 12.1584 13.5419 11.8751 13.5419 11.5334V8.85008L5.94186 4.46674C5.64186 4.29174 5.54184 3.90839 5.71684 3.61673C5.89184 3.31673 6.26686 3.21671 6.56686 3.39171L14.4752 7.95841C14.6669 8.06674 14.7919 8.27505 14.7919 8.50005V11.5501C14.7919 11.8751 14.5085 12.1584 14.1669 12.1584Z" fill="#484C52"/>
</svg>
